<svg xmlns="http://www.w3.org/2000/svg" width="107" height="17" viewBox="0 0 107 17" fill="none">
  <path d="M107 3.46328C106.292 3.74562 105.584 3.92195 104.876 3.99277C105.675 3.54813 106.216 2.91996 106.498 2.10831C105.766 2.51054 104.986 2.78572 104.156 2.93401C103.425 2.21411 102.527 1.854 101.461 1.854C100.44 1.854 99.5707 2.18744 98.8508 2.85447C98.1314 3.52146 97.7716 4.32777 97.7716 5.2735C97.7716 5.52755 97.802 5.78879 97.863 6.05697C96.3553 5.9864 94.941 5.63528 93.6198 5.00358C92.2988 4.37182 91.1776 3.53014 90.2563 2.47854C89.9212 3.00777 89.7537 3.58309 89.7537 4.20418C89.7537 4.78999 89.9021 5.33353 90.1992 5.83466C90.4961 6.33571 90.896 6.74149 91.3985 7.05209C90.8045 7.03088 90.2487 6.88616 89.731 6.61794V6.66028C89.731 7.48614 90.0109 8.2112 90.5704 8.83602C91.1301 9.46078 91.8364 9.85403 92.6891 10.0164C92.3692 10.094 92.0456 10.1328 91.7182 10.1328C91.505 10.1328 91.2727 10.1152 91.0215 10.0802C91.2575 10.7646 91.6916 11.3273 92.3235 11.7687C92.9555 12.2098 93.6712 12.4371 94.4708 12.4516C93.1307 13.4255 91.6041 13.9124 89.8909 13.9124C89.5634 13.9124 89.2665 13.8986 89 13.8702C90.7132 14.8935 92.6015 15.4052 94.665 15.4052C95.9747 15.4052 97.2044 15.213 98.3538 14.8282C99.5038 14.4437 100.486 13.9284 101.301 13.2824C102.115 12.6367 102.818 11.8939 103.408 11.054C103.998 10.214 104.437 9.33715 104.727 8.42316C105.016 7.50898 105.161 6.5934 105.161 5.67569C105.161 5.47805 105.157 5.3299 105.149 5.23104C105.873 4.74427 106.49 4.15482 107 3.46328Z" fill="white"/>
  <path d="M18.2594 2.91797C17.5736 2.16226 16.3073 1.854 13.8891 1.854H5.11076C2.63714 1.854 1.34943 2.18215 0.666165 2.98671C0 3.77116 0 4.92699 0 6.52668V9.5757C0 12.6748 0.7904 14.2483 5.11076 14.2483H13.8891C15.9862 14.2483 17.1483 13.9764 17.9001 13.3094C18.6711 12.6255 19 11.5089 19 9.5757V6.52668C19 4.83967 18.9485 3.67703 18.2594 2.91797ZM12.1981 8.47214L8.21186 10.4032C8.12275 10.4464 8.02529 10.4678 7.92796 10.4678C7.81776 10.4678 7.70781 10.4403 7.61042 10.3857C7.42704 10.2827 7.31506 10.0984 7.31506 9.89969V6.04992C7.31506 5.85153 7.42673 5.66747 7.60975 5.56441C7.79282 5.46136 8.02051 5.45432 8.21045 5.54578L12.1967 7.46441C12.3995 7.56202 12.5268 7.75608 12.5271 7.96782C12.5274 8.17973 12.4006 8.37408 12.1981 8.47214Z" fill="white"/>
  <path d="M58.3652 0.00347163L56.0311 0C53.4087 0 51.714 1.61171 51.714 4.10624V5.9995H49.367C49.1642 5.9995 49 6.1519 49 6.3399V9.08301C49 9.27103 49.1644 9.42324 49.367 9.42324H51.714V16.345C51.714 16.533 51.8782 16.6852 52.081 16.6852H55.1431C55.3459 16.6852 55.5101 16.5328 55.5101 16.345V9.42324H58.2542C58.457 9.42324 58.6212 9.27103 58.6212 9.08301L58.6224 6.3399C58.6224 6.24963 58.5836 6.16319 58.5149 6.09931C58.4461 6.03543 58.3525 5.9995 58.2551 5.9995H55.5101V4.39456C55.5101 3.62317 55.7084 3.23157 56.7925 3.23157L58.3649 3.23105C58.5675 3.23105 58.7317 3.07864 58.7317 2.89083V0.343692C58.7317 0.15605 58.5677 0.0038188 58.3652 0.00347163Z" fill="white"/>
</svg>